# xmcd
#
# Track frame offsets: 
#        150
#        16727
#        31545
#        41017
#        54653
#        68825
#        86680
#        102331
#        117677
#        131727
#        145016
#        159594
#        173604
#        188281
#        202479
#        217691
#        238546
#        251988
#        268349
#        283225
#
# Disc length: 3969 seconds
#
# Revision: 1
# Processed by: cddbd v1.5.2PL0 Copyright (c) Steve Scherf et al.
# Submitted via: ExactAudioCopy v1.0b1
#
DISCID=250f7f14
DTITLE=Various Artist - The Best Collection of Country and Folk Songs
DYEAR=2000
DGENRE=Folk
TTITLE0=Child (Anak)-Little Fox
TTITLE1=Donna Donna-Julie Roger
TTITLE2=Yesterday-The Beatles
TTITLE3=Top of the world-Carpenter
TTITLE4=Scarborough Fair-Paul Simon and Garfunkel
TTITLE5=I Love You to Want Me-Lobo
TTITLE6=Seasons in the sun-Terry Jack
TTITLE7=Stay a While-The Bells
TTITLE8=I Start a Joke-Bee Gees
TTITLE9=San Francissco-Scott Makenzie
TTITLE10=If You Love Me-Olivia Newtonjohn
TTITLE11=Heart of Gold-Neil Diamond
TTITLE12=It's Now of Never-Elvis Presley
TTITLE13=Take Me Home Country Road-John Denver
TTITLE14=Delliah-Tom Jones
TTITLE15=My Way-Frank Sinatra
TTITLE16=Knock Three Times-Dawn
TTITLE17=Feeling-Morris Albert
TTITLE18=I don't Like to Sleep Alone-Paul Anka
TTITLE19=Rhinestone of Cowboy-glen Campell
EXTD=
EXTT0=
EXTT1=
EXTT2=
EXTT3=
EXTT4=
EXTT5=
EXTT6=
EXTT7=
EXTT8=
EXTT9=
EXTT10=
EXTT11=
EXTT12=
EXTT13=
EXTT14=
EXTT15=
EXTT16=
EXTT17=
EXTT18=
EXTT19=
PLAYORDER=
